<svg width="370" height="240" xmlns="http://www.w3.org/2000/svg" viewBox="0 0 370 240">
  <!-- カットシーンの絵: bubble-build（art/ のスクリプトで生成。手で編集しない） -->
  <circle cx="26" cy="222" r="9" fill="#ffffff" stroke="#1b1f27" stroke-width="2.5" stroke-linejoin="round" stroke-linecap="round"/>
  <circle cx="50" cy="196" r="14" fill="#ffffff" stroke="#1b1f27" stroke-width="2.5" stroke-linejoin="round" stroke-linecap="round"/>
  <ellipse cx="190" cy="100" rx="170" ry="92" fill="#ffffff" stroke="#1b1f27" stroke-width="3" stroke-linejoin="round" stroke-linecap="round"/>
  <g><rect x="60" y="120" width="64" height="30" rx="5" fill="#eceff1" stroke="#1b1f27" stroke-width="3" stroke-linejoin="round" stroke-linecap="round"/><rect x="60" y="131" width="64" height="8" fill="#e53935"/><rect x="60" y="120" width="64" height="30" rx="5" fill="none" stroke="#1b1f27" stroke-width="3"/></g>
  <g><rect x="60" y="86" width="64" height="30" rx="5" fill="#eceff1" stroke="#1b1f27" stroke-width="3" stroke-linejoin="round" stroke-linecap="round"/><rect x="60" y="97" width="64" height="8" fill="#e53935"/><rect x="60" y="86" width="64" height="30" rx="5" fill="none" stroke="#1b1f27" stroke-width="3"/></g>
  <g><rect x="60" y="52" width="64" height="30" rx="5" fill="#eceff1" stroke="#1b1f27" stroke-width="3" stroke-linejoin="round" stroke-linecap="round"/><rect x="60" y="63" width="64" height="8" fill="#e53935"/><rect x="60" y="52" width="64" height="30" rx="5" fill="none" stroke="#1b1f27" stroke-width="3"/></g>
  <path d="M144 100 H190" fill="none" stroke="#1b1f27" stroke-width="7" stroke-linejoin="round" stroke-linecap="round"/>
  <polygon points="190,84 214,100 190,116" fill="#1b1f27"/>
  <g transform="translate(234 22) scale(1.5)"><g><path d="M22 56 L8 74 V86 L22 80 Z" fill="#e53935" stroke="#1b1f27" stroke-width="3" stroke-linejoin="round" stroke-linecap="round"/><circle cx="11" cy="80" r="1.2" fill="#1b1f27"/></g><g><path d="M42 56 L56 74 V86 L42 80 Z" fill="#e53935" stroke="#1b1f27" stroke-width="3" stroke-linejoin="round" stroke-linecap="round"/><circle cx="53" cy="80" r="1.2" fill="#1b1f27"/></g><g><path d="M24 80 H40 L44 90 H20 Z" fill="#90a4ae" stroke="#1b1f27" stroke-width="3" stroke-linejoin="round" stroke-linecap="round"/><path d="M28 80 V84 M36 80 V84" fill="none" stroke="#546e7a" stroke-width="1.5" stroke-linejoin="round" stroke-linecap="round"/></g><g><rect x="20" y="62" width="24" height="18" fill="#eceff1" stroke="#1b1f27" stroke-width="3" stroke-linejoin="round" stroke-linecap="round"/><path d="M21.5 66 H42.5 M21.5 76 H42.5" fill="none" stroke="#b0bec5" stroke-width="1.5" stroke-linejoin="round" stroke-linecap="round"/><path d="M30.5 69.5 L32.5 68 V75" fill="none" stroke="#e53935" stroke-width="1.8" stroke-linejoin="round" stroke-linecap="round"/></g><g><rect x="20" y="46" width="24" height="16" fill="#eceff1" stroke="#1b1f27" stroke-width="3" stroke-linejoin="round" stroke-linecap="round"/><path d="M23 49 L29 55 M29 49 L23 55" fill="none" stroke="#cfd8dc" stroke-width="3" stroke-linejoin="round" stroke-linecap="round"/></g><g><rect x="20" y="32" width="24" height="14" fill="#eceff1" stroke="#1b1f27" stroke-width="3" stroke-linejoin="round" stroke-linecap="round"/><path d="M22 35 V43" fill="none" stroke="#b0bec5" stroke-width="2" stroke-linejoin="round" stroke-linecap="round"/></g><g><path d="M20 32 C20 20 27 10 32 5 C37 10 44 20 44 32 Z" fill="#e53935" stroke="#1b1f27" stroke-width="3" stroke-linejoin="round" stroke-linecap="round"/><path d="M20.5 28 H43.5" fill="none" stroke="#b71c1c" stroke-width="2" stroke-linejoin="round" stroke-linecap="round"/><path d="M23 22 Q32 14 41 22" fill="none" stroke="#546e7a" stroke-width="1.5" stroke-linejoin="round" stroke-linecap="round"/></g><g><circle cx="32" cy="53" r="8.5" fill="#cfd8dc" stroke="#1b1f27" stroke-width="3" stroke-linejoin="round" stroke-linecap="round"/><circle cx="32" cy="53" r="5.5" fill="#b3e5fc" stroke="#546e7a" stroke-width="1.5"/><path d="M29 51 q2 -2 4 -2" fill="none" stroke="#ffffff" stroke-width="1.4" stroke-linejoin="round" stroke-linecap="round"/></g><g><path d="M32 5 V-1" fill="none" stroke="#cfd8dc" stroke-width="2.5" stroke-linejoin="round" stroke-linecap="round"/><circle cx="32" cy="-3.5" r="3" fill="#ffeb3b" stroke="#1b1f27" stroke-width="2.5" stroke-linejoin="round" stroke-linecap="round"/></g></g>
</svg>
