<svg width="1280" height="200" xmlns="http://www.w3.org/2000/svg" viewBox="0 0 1280 200">
  <!-- カットシーンの絵: roof（art/ のスクリプトで生成。手で編集しない） -->
  <rect x="0" y="0" width="1280" height="200" fill="#101218"/>
  <rect x="0" y="22" width="16" height="178" fill="#15181f"/>
  <rect x="32" y="22" width="16" height="178" fill="#15181f"/>
  <rect x="64" y="22" width="16" height="178" fill="#15181f"/>
  <rect x="96" y="22" width="16" height="178" fill="#15181f"/>
  <rect x="128" y="22" width="16" height="178" fill="#15181f"/>
  <rect x="160" y="22" width="16" height="178" fill="#15181f"/>
  <rect x="192" y="22" width="16" height="178" fill="#15181f"/>
  <rect x="224" y="22" width="16" height="178" fill="#15181f"/>
  <rect x="256" y="22" width="16" height="178" fill="#15181f"/>
  <rect x="288" y="22" width="16" height="178" fill="#15181f"/>
  <rect x="320" y="22" width="16" height="178" fill="#15181f"/>
  <rect x="352" y="22" width="16" height="178" fill="#15181f"/>
  <rect x="384" y="22" width="16" height="178" fill="#15181f"/>
  <rect x="416" y="22" width="16" height="178" fill="#15181f"/>
  <rect x="448" y="22" width="16" height="178" fill="#15181f"/>
  <rect x="480" y="22" width="16" height="178" fill="#15181f"/>
  <rect x="512" y="22" width="16" height="178" fill="#15181f"/>
  <rect x="544" y="22" width="16" height="178" fill="#15181f"/>
  <rect x="576" y="22" width="16" height="178" fill="#15181f"/>
  <rect x="608" y="22" width="16" height="178" fill="#15181f"/>
  <rect x="640" y="22" width="16" height="178" fill="#15181f"/>
  <rect x="672" y="22" width="16" height="178" fill="#15181f"/>
  <rect x="704" y="22" width="16" height="178" fill="#15181f"/>
  <rect x="736" y="22" width="16" height="178" fill="#15181f"/>
  <rect x="768" y="22" width="16" height="178" fill="#15181f"/>
  <rect x="800" y="22" width="16" height="178" fill="#15181f"/>
  <rect x="832" y="22" width="16" height="178" fill="#15181f"/>
  <rect x="864" y="22" width="16" height="178" fill="#15181f"/>
  <rect x="896" y="22" width="16" height="178" fill="#15181f"/>
  <rect x="928" y="22" width="16" height="178" fill="#15181f"/>
  <rect x="960" y="22" width="16" height="178" fill="#15181f"/>
  <rect x="992" y="22" width="16" height="178" fill="#15181f"/>
  <rect x="1024" y="22" width="16" height="178" fill="#15181f"/>
  <rect x="1056" y="22" width="16" height="178" fill="#15181f"/>
  <rect x="1088" y="22" width="16" height="178" fill="#15181f"/>
  <rect x="1120" y="22" width="16" height="178" fill="#15181f"/>
  <rect x="1152" y="22" width="16" height="178" fill="#15181f"/>
  <rect x="1184" y="22" width="16" height="178" fill="#15181f"/>
  <rect x="1216" y="22" width="16" height="178" fill="#15181f"/>
  <rect x="1248" y="22" width="16" height="178" fill="#15181f"/>
  <rect x="100" y="60" width="120" height="54" rx="4" fill="#1d2433" stroke="#1b1f27" stroke-width="3" stroke-linejoin="round" stroke-linecap="round"/>
  <path d="M160 60 V114" fill="none" stroke="#1b1f27" stroke-width="3" stroke-linejoin="round" stroke-linecap="round"/>
  <path d="M112 70 l22 -4" fill="none" stroke="#ffffff" stroke-width="2" stroke-linejoin="round" stroke-linecap="round" opacity="0.5"/>
  <rect x="420" y="60" width="120" height="54" rx="4" fill="#1d2433" stroke="#1b1f27" stroke-width="3" stroke-linejoin="round" stroke-linecap="round"/>
  <path d="M480 60 V114" fill="none" stroke="#1b1f27" stroke-width="3" stroke-linejoin="round" stroke-linecap="round"/>
  <path d="M432 70 l22 -4" fill="none" stroke="#ffffff" stroke-width="2" stroke-linejoin="round" stroke-linecap="round" opacity="0.5"/>
  <rect x="740" y="60" width="120" height="54" rx="4" fill="#1d2433" stroke="#1b1f27" stroke-width="3" stroke-linejoin="round" stroke-linecap="round"/>
  <path d="M800 60 V114" fill="none" stroke="#1b1f27" stroke-width="3" stroke-linejoin="round" stroke-linecap="round"/>
  <path d="M752 70 l22 -4" fill="none" stroke="#ffffff" stroke-width="2" stroke-linejoin="round" stroke-linecap="round" opacity="0.5"/>
  <rect x="1060" y="60" width="120" height="54" rx="4" fill="#1d2433" stroke="#1b1f27" stroke-width="3" stroke-linejoin="round" stroke-linecap="round"/>
  <path d="M1120 60 V114" fill="none" stroke="#1b1f27" stroke-width="3" stroke-linejoin="round" stroke-linecap="round"/>
  <path d="M1072 70 l22 -4" fill="none" stroke="#ffffff" stroke-width="2" stroke-linejoin="round" stroke-linecap="round" opacity="0.5"/>
  <circle cx="300" cy="150" r="26" fill="#546e7a" stroke="#1b1f27" stroke-width="3" stroke-linejoin="round" stroke-linecap="round"/>
  <path d="M282 150 H318 M300 132 V168" fill="none" stroke="#1b1f27" stroke-width="3" stroke-linejoin="round" stroke-linecap="round"/>
  <circle cx="300" cy="150" r="5" fill="#1b1f27"/>
  <circle cx="920" cy="150" r="26" fill="#546e7a" stroke="#1b1f27" stroke-width="3" stroke-linejoin="round" stroke-linecap="round"/>
  <path d="M902 150 H938 M920 132 V168" fill="none" stroke="#1b1f27" stroke-width="3" stroke-linejoin="round" stroke-linecap="round"/>
  <circle cx="920" cy="150" r="5" fill="#1b1f27"/>
  <rect x="0" y="0" width="1280" height="22" fill="#262b38" stroke="#1b1f27" stroke-width="3" stroke-linejoin="round" stroke-linecap="round"/>
  <path d="M0 4 H1280" fill="none" stroke="#ffffff" stroke-width="2" stroke-linejoin="round" stroke-linecap="round" opacity="0.18"/>
  <circle cx="20" cy="14" r="2.5" fill="#3a4152"/>
  <circle cx="60" cy="14" r="2.5" fill="#3a4152"/>
  <circle cx="100" cy="14" r="2.5" fill="#3a4152"/>
  <circle cx="140" cy="14" r="2.5" fill="#3a4152"/>
  <circle cx="180" cy="14" r="2.5" fill="#3a4152"/>
  <circle cx="220" cy="14" r="2.5" fill="#3a4152"/>
  <circle cx="260" cy="14" r="2.5" fill="#3a4152"/>
  <circle cx="300" cy="14" r="2.5" fill="#3a4152"/>
  <circle cx="340" cy="14" r="2.5" fill="#3a4152"/>
  <circle cx="380" cy="14" r="2.5" fill="#3a4152"/>
  <circle cx="420" cy="14" r="2.5" fill="#3a4152"/>
  <circle cx="460" cy="14" r="2.5" fill="#3a4152"/>
  <circle cx="500" cy="14" r="2.5" fill="#3a4152"/>
  <circle cx="540" cy="14" r="2.5" fill="#3a4152"/>
  <circle cx="580" cy="14" r="2.5" fill="#3a4152"/>
  <circle cx="620" cy="14" r="2.5" fill="#3a4152"/>
  <circle cx="660" cy="14" r="2.5" fill="#3a4152"/>
  <circle cx="700" cy="14" r="2.5" fill="#3a4152"/>
  <circle cx="740" cy="14" r="2.5" fill="#3a4152"/>
  <circle cx="780" cy="14" r="2.5" fill="#3a4152"/>
  <circle cx="820" cy="14" r="2.5" fill="#3a4152"/>
  <circle cx="860" cy="14" r="2.5" fill="#3a4152"/>
  <circle cx="900" cy="14" r="2.5" fill="#3a4152"/>
  <circle cx="940" cy="14" r="2.5" fill="#3a4152"/>
  <circle cx="980" cy="14" r="2.5" fill="#3a4152"/>
  <circle cx="1020" cy="14" r="2.5" fill="#3a4152"/>
  <circle cx="1060" cy="14" r="2.5" fill="#3a4152"/>
  <circle cx="1100" cy="14" r="2.5" fill="#3a4152"/>
  <circle cx="1140" cy="14" r="2.5" fill="#3a4152"/>
  <circle cx="1180" cy="14" r="2.5" fill="#3a4152"/>
  <circle cx="1220" cy="14" r="2.5" fill="#3a4152"/>
  <circle cx="1260" cy="14" r="2.5" fill="#3a4152"/>
</svg>
