<svg width="1280" height="720" xmlns="http://www.w3.org/2000/svg" viewBox="0 0 1280 720">
  <!-- カットシーンの絵: workshop（art/ のスクリプトで生成。手で編集しない） -->
  <rect x="0" y="0" width="1280" height="720" fill="#23272e"/>
  <g><rect x="160" y="90" width="240" height="170" rx="8" fill="#1c2040" stroke="#1b1f27" stroke-width="6" stroke-linejoin="round" stroke-linecap="round"/><g transform="translate(160 90)"><circle cx="0" cy="0" r="1.6" fill="#ffffff" opacity="0.4"/></g><g transform="translate(160 90)"><circle cx="197" cy="89" r="1" fill="#ffffff" opacity="0.7"/></g><g transform="translate(160 90)"><circle cx="154" cy="8" r="1" fill="#ffffff" opacity="0.4"/></g><g transform="translate(160 90)"><circle cx="111" cy="97" r="1.6" fill="#ffffff" opacity="0.7"/></g><g transform="translate(160 90)"><circle cx="68" cy="16" r="1" fill="#ffffff" opacity="0.4"/></g><g transform="translate(160 90)"><circle cx="25" cy="105" r="1" fill="#ffffff" opacity="0.7"/></g><g transform="translate(160 90)"><circle cx="222" cy="24" r="1.6" fill="#ffffff" opacity="0.4"/></g><g transform="translate(160 90)"><circle cx="179" cy="113" r="1" fill="#ffffff" opacity="0.7"/></g><g transform="translate(160 90)"><circle cx="136" cy="32" r="1" fill="#ffffff" opacity="0.4"/></g><g transform="translate(160 90)"><circle cx="93" cy="121" r="1.6" fill="#ffffff" opacity="0.7"/></g><g transform="translate(160 90)"><circle cx="50" cy="40" r="1" fill="#ffffff" opacity="0.4"/></g><g transform="translate(160 90)"><circle cx="7" cy="129" r="1" fill="#ffffff" opacity="0.7"/></g><path d="M280 90 V260 M160 175 H400" fill="none" stroke="#363a41" stroke-width="6" stroke-linejoin="round" stroke-linecap="round"/></g>
  <g><rect x="520" y="90" width="240" height="170" rx="8" fill="#1c2040" stroke="#1b1f27" stroke-width="6" stroke-linejoin="round" stroke-linecap="round"/><g transform="translate(520 90)"><circle cx="0" cy="0" r="1.6" fill="#ffffff" opacity="0.4"/></g><g transform="translate(520 90)"><circle cx="197" cy="89" r="1" fill="#ffffff" opacity="0.7"/></g><g transform="translate(520 90)"><circle cx="154" cy="8" r="1" fill="#ffffff" opacity="0.4"/></g><g transform="translate(520 90)"><circle cx="111" cy="97" r="1.6" fill="#ffffff" opacity="0.7"/></g><g transform="translate(520 90)"><circle cx="68" cy="16" r="1" fill="#ffffff" opacity="0.4"/></g><g transform="translate(520 90)"><circle cx="25" cy="105" r="1" fill="#ffffff" opacity="0.7"/></g><g transform="translate(520 90)"><circle cx="222" cy="24" r="1.6" fill="#ffffff" opacity="0.4"/></g><g transform="translate(520 90)"><circle cx="179" cy="113" r="1" fill="#ffffff" opacity="0.7"/></g><g transform="translate(520 90)"><circle cx="136" cy="32" r="1" fill="#ffffff" opacity="0.4"/></g><g transform="translate(520 90)"><circle cx="93" cy="121" r="1.6" fill="#ffffff" opacity="0.7"/></g><g transform="translate(520 90)"><circle cx="50" cy="40" r="1" fill="#ffffff" opacity="0.4"/></g><g transform="translate(520 90)"><circle cx="7" cy="129" r="1" fill="#ffffff" opacity="0.7"/></g><path d="M640 90 V260 M520 175 H760" fill="none" stroke="#363a41" stroke-width="6" stroke-linejoin="round" stroke-linecap="round"/></g>
  <g><rect x="880" y="90" width="240" height="170" rx="8" fill="#1c2040" stroke="#1b1f27" stroke-width="6" stroke-linejoin="round" stroke-linecap="round"/><g transform="translate(880 90)"><circle cx="0" cy="0" r="1.6" fill="#ffffff" opacity="0.4"/></g><g transform="translate(880 90)"><circle cx="197" cy="89" r="1" fill="#ffffff" opacity="0.7"/></g><g transform="translate(880 90)"><circle cx="154" cy="8" r="1" fill="#ffffff" opacity="0.4"/></g><g transform="translate(880 90)"><circle cx="111" cy="97" r="1.6" fill="#ffffff" opacity="0.7"/></g><g transform="translate(880 90)"><circle cx="68" cy="16" r="1" fill="#ffffff" opacity="0.4"/></g><g transform="translate(880 90)"><circle cx="25" cy="105" r="1" fill="#ffffff" opacity="0.7"/></g><g transform="translate(880 90)"><circle cx="222" cy="24" r="1.6" fill="#ffffff" opacity="0.4"/></g><g transform="translate(880 90)"><circle cx="179" cy="113" r="1" fill="#ffffff" opacity="0.7"/></g><g transform="translate(880 90)"><circle cx="136" cy="32" r="1" fill="#ffffff" opacity="0.4"/></g><g transform="translate(880 90)"><circle cx="93" cy="121" r="1.6" fill="#ffffff" opacity="0.7"/></g><g transform="translate(880 90)"><circle cx="50" cy="40" r="1" fill="#ffffff" opacity="0.4"/></g><g transform="translate(880 90)"><circle cx="7" cy="129" r="1" fill="#ffffff" opacity="0.7"/></g><path d="M1000 90 V260 M880 175 H1120" fill="none" stroke="#363a41" stroke-width="6" stroke-linejoin="round" stroke-linecap="round"/></g>
  <rect x="0" y="600" width="1280" height="120" fill="#4a4f57"/>
  <path d="M0 600 H1280" fill="none" stroke="#ffc107" stroke-width="8" stroke-linejoin="round" stroke-linecap="round"/>
  <path d="M40 640 h30" fill="none" stroke="#363a41" stroke-width="4" stroke-linejoin="round" stroke-linecap="round"/>
  <path d="M120 640 h30" fill="none" stroke="#363a41" stroke-width="4" stroke-linejoin="round" stroke-linecap="round"/>
  <path d="M200 640 h30" fill="none" stroke="#363a41" stroke-width="4" stroke-linejoin="round" stroke-linecap="round"/>
  <path d="M280 640 h30" fill="none" stroke="#363a41" stroke-width="4" stroke-linejoin="round" stroke-linecap="round"/>
  <path d="M360 640 h30" fill="none" stroke="#363a41" stroke-width="4" stroke-linejoin="round" stroke-linecap="round"/>
  <path d="M440 640 h30" fill="none" stroke="#363a41" stroke-width="4" stroke-linejoin="round" stroke-linecap="round"/>
  <path d="M520 640 h30" fill="none" stroke="#363a41" stroke-width="4" stroke-linejoin="round" stroke-linecap="round"/>
  <path d="M600 640 h30" fill="none" stroke="#363a41" stroke-width="4" stroke-linejoin="round" stroke-linecap="round"/>
  <path d="M680 640 h30" fill="none" stroke="#363a41" stroke-width="4" stroke-linejoin="round" stroke-linecap="round"/>
  <path d="M760 640 h30" fill="none" stroke="#363a41" stroke-width="4" stroke-linejoin="round" stroke-linecap="round"/>
  <path d="M840 640 h30" fill="none" stroke="#363a41" stroke-width="4" stroke-linejoin="round" stroke-linecap="round"/>
  <path d="M920 640 h30" fill="none" stroke="#363a41" stroke-width="4" stroke-linejoin="round" stroke-linecap="round"/>
  <path d="M1000 640 h30" fill="none" stroke="#363a41" stroke-width="4" stroke-linejoin="round" stroke-linecap="round"/>
  <path d="M1080 640 h30" fill="none" stroke="#363a41" stroke-width="4" stroke-linejoin="round" stroke-linecap="round"/>
  <path d="M1160 640 h30" fill="none" stroke="#363a41" stroke-width="4" stroke-linejoin="round" stroke-linecap="round"/>
  <path d="M1240 640 h30" fill="none" stroke="#363a41" stroke-width="4" stroke-linejoin="round" stroke-linecap="round"/>
</svg>
